HIERARCHY
ROOT root
{
	OFFSET 0.000000 0.000000 0.000000
	CHANNELS 6 Xposition Yposition Zposition Zrotation Yrotation Xrotation
	JOINT lhip
	{
		OFFSET 0.058581 -0.082280 -0.017664
		CHANNELS 3 Zrotation Yrotation Xrotation
		JOINT lknee
		{
			OFFSET 0.043451 -0.386469 0.008037
			CHANNELS 3 Zrotation Yrotation Xrotation
			JOINT lankle
			{
				OFFSET -0.014790 -0.426874 -0.037428
				CHANNELS 3 Zrotation Yrotation Xrotation
				JOINT ltoe
				{
					OFFSET 0.041054 -0.060286 0.122042
					CHANNELS 3 Zrotation Yrotation Xrotation
					End Site
					{
						OFFSET 0.000000 0.000000 0.000000
					}
				}
			}
		}
	}
	JOINT rhip
	{
		OFFSET -0.060310 -0.090513 -0.013543
		CHANNELS 3 Zrotation Yrotation Xrotation
		JOINT rknee
		{
			OFFSET -0.043257 -0.383688 -0.004843
			CHANNELS 3 Zrotation Yrotation Xrotation
			JOINT rankle
			{
				OFFSET 0.019056 -0.420046 -0.034562
				CHANNELS 3 Zrotation Yrotation Xrotation
				JOINT rtoe
				{
					OFFSET -0.034840 -0.062106 0.130323
					CHANNELS 3 Zrotation Yrotation Xrotation
					End Site
					{
						OFFSET 0.000000 0.000000 0.000000
					}
				}
			}
		}
	}
	JOINT lowerback
	{
		OFFSET 0.004439 0.124404 -0.038385
		CHANNELS 3 Zrotation Yrotation Xrotation
		JOINT upperback
		{
			OFFSET 0.004488 0.137956 0.026820
			CHANNELS 3 Zrotation Yrotation Xrotation
			JOINT chest
			{
				OFFSET -0.002265 0.056032 0.002855
				CHANNELS 3 Zrotation Yrotation Xrotation
				JOINT lowerneck
				{
					OFFSET -0.013390 0.211636 -0.033468
					CHANNELS 3 Zrotation Yrotation Xrotation
					JOINT upperneck
					{
						OFFSET 0.010113 0.088937 0.050410
						CHANNELS 3 Zrotation Yrotation Xrotation
						End Site
						{
							OFFSET 0.000000 0.000000 0.000000
						}
					}
				}
				JOINT lclavicle
				{
					OFFSET 0.071702 0.114000 -0.018898
					CHANNELS 3 Zrotation Yrotation Xrotation
					JOINT lshoulder
					{
						OFFSET 0.122921 0.045205 -0.019046
						CHANNELS 3 Zrotation Yrotation Xrotation
						JOINT lelbow
						{
							OFFSET 0.255332 -0.015649 -0.022946
							CHANNELS 3 Zrotation Yrotation Xrotation
							JOINT lwrist
							{
								OFFSET 0.265709 0.012698 -0.007375
								CHANNELS 3 Zrotation Yrotation Xrotation
								End Site
								{
									OFFSET 0.000000 0.000000 0.000000
								}
							}
						}
					}
				}
				JOINT rclavicle
				{
					OFFSET -0.082954 0.112472 -0.023707
					CHANNELS 3 Zrotation Yrotation Xrotation
					JOINT rshoulder
					{
						OFFSET -0.113228 0.046853 -0.008472
						CHANNELS 3 Zrotation Yrotation Xrotation
						JOINT relbow
						{
							OFFSET -0.260127 -0.014369 -0.031269
							CHANNELS 3 Zrotation Yrotation Xrotation
							JOINT rwrist
							{
								OFFSET -0.269108 0.006794 -0.006027
								CHANNELS 3 Zrotation Yrotation Xrotation
								End Site
								{
									OFFSET 0.000000 0.000000 0.000000
								}
							}
						}
					}
				}
			}
		}
	}
}
MOTION
Frames: 10
Frame Time: 0.033333
1.157672 0.700970 0.985564 -89.065859 -0.309002 84.879080 -1.251867 -1.021533 4.444642 0.963645 -10.247415 1.961327 1.571347 11.365268 -12.629963 0.000000 -0.000000 0.000000 2.531085 -4.251270 5.024906 -3.830898 1.081217 2.666523 3.281229 -9.666995 -13.052400 0.000000 -0.000000 0.000000 -0.047404 4.409635 11.879055 -2.138275 -0.312335 -1.953351 -0.988579 1.492950 3.378540 3.787555 -2.746479 -6.914816 6.980373 -8.829240 -1.058527 -19.532169 4.731619 -4.355396 -40.944206 -7.466435 -1.632020 9.393295 -11.203720 -9.351134 -5.432081 -1.492796 -4.705375 19.982210 -0.199022 -2.276749 51.379584 -0.071813 8.721389 -17.709709 18.003685 -3.000633 4.495684 -1.141745 7.192206 
1.158298 0.700974 0.985739 -89.525686 -0.299757 84.957920 -1.311093 -1.118796 4.431657 1.048305 -9.927129 1.859279 1.618903 11.721694 -12.658208 0.000000 -0.000000 0.000000 2.592402 -3.856680 4.918161 -3.847586 1.153985 2.604631 3.234410 -9.766930 -13.005896 0.000000 -0.000000 0.000000 0.015182 4.314047 12.097838 -2.082113 -0.352766 -2.401644 -0.957003 1.359036 3.522044 3.731940 -2.694346 -6.797705 6.977800 -8.562749 -1.065927 -19.489826 5.425870 -3.871273 -41.665455 -6.581895 -1.243669 8.900515 -11.479233 -8.495194 -5.217121 -1.949920 -4.824876 19.505981 -0.840298 -1.880254 51.891674 -1.251600 9.316525 -16.786032 18.638439 -1.138885 4.007970 -1.198863 7.040918 
1.158813 0.701008 0.985866 -89.724724 -0.224014 84.997881 -1.219753 -1.015057 4.375219 1.064978 -9.937374 1.839576 1.497444 11.730717 -12.740101 0.000000 -0.000000 0.000000 2.658652 -3.879765 4.913957 -3.847394 1.271055 2.420892 3.398962 -9.645275 -12.879535 0.000000 -0.000000 0.000000 0.084562 4.076814 12.264040 -2.014226 -0.398610 -2.750757 -0.841186 1.177999 3.695195 3.698691 -2.602827 -6.871013 6.740213 -7.929300 -1.065658 -20.127419 6.168967 -3.879037 -42.506958 -5.952232 -0.892902 8.089007 -11.335172 -7.152731 -4.652230 -2.105091 -3.499263 19.653525 -1.635195 -1.799274 52.120808 -2.300625 10.078569 -14.951203 18.974780 1.373819 4.149188 -1.180627 8.069000 
1.159186 0.700824 0.985727 -90.172899 -0.275835 85.041404 -1.254777 -0.762848 4.549059 1.068408 -9.895152 1.434154 1.633469 11.889523 -12.700224 0.000000 -0.000000 0.000000 2.585009 -3.728752 4.843178 -3.856121 1.473607 2.370623 3.291109 -9.577824 -12.911537 0.000000 -0.000000 0.000000 0.217967 3.915457 12.350845 -2.149571 -0.282153 -2.820591 -0.768602 0.839915 3.700384 3.482284 -2.449817 -6.983246 6.776826 -6.862828 -1.153577 -21.343176 6.431807 -3.281507 -44.341168 -5.190536 -0.102743 7.517103 -10.611884 -5.960162 -3.875104 -1.709967 -3.756612 20.129671 -2.090673 -1.235112 53.137447 -3.863499 11.120142 -12.446294 19.091386 4.275581 3.917856 -1.297096 8.262955 
1.159793 0.700606 0.985410 -90.520327 -0.296044 84.922444 -1.294311 -0.535857 4.713538 1.106002 -9.699216 1.378300 1.585401 11.769666 -12.661473 0.000000 -0.000000 0.000000 2.559234 -3.607412 4.907260 -3.924642 1.502409 2.346885 3.242561 -9.449037 -12.878072 0.000000 -0.000000 0.000000 0.392099 3.822271 12.678524 -2.299067 -0.208607 -2.817296 -0.750072 0.716906 3.629920 3.382859 -2.426933 -7.048008 6.860878 -6.209440 -1.274026 -22.190285 6.440537 -3.022904 -45.883936 -4.776593 0.323443 7.158931 -10.387588 -5.315131 -4.102149 -1.339718 -3.866371 20.401163 -2.196628 -0.902973 54.415197 -4.704884 11.689078 -11.584897 19.338378 5.623072 4.774826 -1.838353 8.526527 
1.161105 0.700132 0.985219 -90.747722 -0.303254 84.917365 -1.310986 -0.389089 4.611594 1.102060 -9.476192 1.401421 1.569038 11.587186 -12.726258 0.000000 -0.000000 0.000000 2.521224 -3.511658 4.755525 -3.974963 1.266201 2.475108 3.237925 -9.028652 -12.847545 0.000000 -0.000000 0.000000 0.596725 3.557245 13.059601 -2.417973 -0.310489 -2.848614 -0.817373 0.630834 3.554432 3.332653 -2.138851 -7.295003 6.866598 -5.659722 -1.299013 -23.462498 6.395183 -2.706555 -47.837603 -4.488600 1.227071 6.278448 -10.084083 -3.651577 -5.458788 -1.112436 -4.206378 20.902917 -2.532817 -0.420972 56.335158 -5.391718 12.423030 -10.500530 19.478165 7.404006 6.202262 -2.304362 8.166403 
1.163053 0.699879 0.984983 -91.198801 -0.346060 85.001444 -1.347900 -0.329733 4.393431 1.075845 -9.006054 1.445199 1.635846 11.338967 -12.723785 0.000000 -0.000000 0.000000 2.429643 -3.394631 4.339882 -3.953626 1.178359 2.724086 3.304681 -8.519872 -12.840165 0.000000 -0.000000 0.000000 0.679432 3.558824 13.456550 -2.425987 -0.392872 -2.982398 -0.863165 0.485500 3.579518 3.186952 -1.760808 -7.686327 6.789471 -5.341229 -1.251701 -24.518025 6.061763 -2.389405 -50.002786 -4.443546 2.469570 5.000653 -9.987987 -1.677199 -6.851625 -0.835417 -4.127351 21.530145 -2.642543 -0.079339 58.341372 -5.743957 12.903699 -10.129881 19.257925 8.147831 7.545022 -2.780509 8.705053 
1.165155 0.699475 0.984945 -91.359357 -0.341098 85.105250 -1.394345 -0.317379 3.982528 1.130340 -8.579300 1.716163 1.727148 10.953941 -12.781934 0.000000 -0.000000 0.000000 2.454979 -2.989520 3.959627 -3.997568 0.825073 2.965082 3.358638 -8.303757 -13.117132 0.000000 -0.000000 0.000000 0.688291 3.352988 13.903909 -2.405793 -0.501287 -3.079905 -0.844898 0.195016 3.503101 3.235213 -1.401279 -8.335849 6.601051 -5.093456 -0.997016 -25.389216 5.491370 -1.798246 -52.297786 -4.843262 3.530316 4.720474 -9.835553 0.270602 -8.850340 -1.136421 -4.573121 22.154070 -2.436054 0.171847 60.096761 -5.643817 13.298138 -10.596242 18.827643 8.069018 8.380117 -2.754282 8.522192 
1.167619 0.699203 0.985276 -91.698664 -0.285679 85.198502 -1.319881 -0.236974 3.644114 1.086350 -8.089816 1.900443 1.758872 10.646176 -12.734867 0.000000 -0.000000 0.000000 2.478508 -2.910434 3.531648 -3.940081 0.696734 3.193952 3.374611 -7.817393 -13.241572 0.000000 -0.000000 0.000000 0.670945 3.343409 14.003361 -2.344559 -0.661982 -2.674357 -0.791612 -0.044304 3.447057 3.336227 -0.845454 -8.850237 6.461626 -4.949905 -1.100080 -26.008952 4.978057 -1.862270 -53.912205 -5.611511 4.220819 5.164425 -9.563933 0.872491 -10.427094 -1.142885 -5.187632 22.735929 -2.327525 0.233266 60.804212 -4.780195 13.544503 -11.202644 18.829190 8.000797 8.906380 -2.618871 8.772254 
1.170822 0.698898 0.985362 -92.385169 -0.212555 85.687287 -1.257551 -0.319224 2.871778 1.125057 -7.368978 2.042141 1.836288 10.559777 -12.636451 0.000000 -0.000000 0.000000 2.659599 -2.456141 2.433677 -4.034303 0.613608 3.723124 3.415177 -7.440035 -13.517269 0.000000 -0.000000 0.000000 0.533267 3.042929 14.252931 -2.290166 -0.818026 -2.959761 -0.825522 -0.142591 3.444554 3.603730 -0.178634 -9.452577 6.205267 -4.830328 -1.097789 -25.476070 4.970169 -2.255303 -54.192089 -6.509604 4.120842 6.216124 -10.132433 0.366819 -11.693598 -1.382519 -5.807801 22.561181 -2.314412 -0.393845 60.666899 -3.084073 13.605819 -12.397083 19.230286 7.622530 9.867679 -2.691253 8.890040 
